<svg xmlns="http://www.w3.org/2000/svg" width="14" height="14"><g fill="none" fill-rule="evenodd"><path fill="#000" fill-rule="nonzero" d="M12.628 4.415c-1.053.764-1.58 1.683-1.58 2.759 0 1.287.65 2.275 1.952 2.964-.35 1.037-.855 1.94-1.517 2.709C10.82 13.616 10.216 14 9.669 14c-.258 0-.61-.087-1.055-.262l-.214-.085c-.437-.174-.823-.261-1.159-.261-.317 0-.664.068-1.041.205l-.269.099-.338.141a2.119 2.119 0 01-.807.163c-.639 0-1.345-.54-2.117-1.62C1.556 10.833 1 9.147 1 7.322c0-1.297.347-2.341 1.041-3.134C2.736 3.396 3.655 3 4.8 3c.428 0 .828.08 1.2.24l.255.107.27.113c.238.104.431.155.578.155.189 0 .398-.044.628-.134l.352-.141.262-.1a3.96 3.96 0 011.386-.233c1.2 0 2.166.47 2.897 1.408zM9.978 0c.015.143.022.254.022.332 0 .709-.297 1.33-.892 1.866A3.001 3.001 0 017.035 3 2.8 2.8 0 017 2.656c0-.603.276-1.168.828-1.697A3.296 3.296 0 019.745.031c.052-.008.13-.019.234-.031z"/><path d="M0 0h14v14H0z"/></g></svg>