<svg xmlns="http://www.w3.org/2000/svg" width="14" height="14"><path d="M10.6 4.667v5.438a.921.921 0 01-.934.908H9.4l-.007 2.136c0 .47-.41.851-.893.851-.482 0-.907-.381-.907-.85l.007-2.137H6.4l-.007 2.136c0 .47-.41.851-.894.851-.481 0-.906-.381-.906-.85l.007-2.137h-.265a.92.92 0 01-.934-.907L3.4 4.666h7.2zm1.5 0c.483 0 .9.388.9.858v3.561c0 .47-.417.83-.9.83-.484 0-.9-.36-.9-.83v-3.56c0-.47.417-.86.9-.86zm-10.2 0c.483 0 .9.388.9.858v3.561c0 .47-.417.83-.9.83-.484 0-.9-.36-.9-.83v-3.56c0-.47.417-.86.9-.86zM4.737.023a.242.242 0 01.32.109l.488.975a3.812 3.812 0 013.024.05l-.041-.017.501-1.005a.243.243 0 01.32-.108.23.23 0 01.112.312l-.51 1.023c1.004.593 1.649 1.386 1.649 2.629H3.4c0-1.316.722-2.128 1.83-2.73l-.111.061-.493-.987a.228.228 0 01.058-.277zm.758 1.982a.5.5 0 10.499.5.5.5 0 00-.5-.5zm3.004-.003a.5.5 0 100 1 .5.5 0 000-1z" fill="#34AC6A" fill-rule="nonzero"/></svg>