<svg xmlns="http://www.w3.org/2000/svg" width="24" height="24"><defs><filter id="a"><feColorMatrix in="SourceGraphic" values="0 0 0 0 1.000000 0 0 0 0 1.000000 0 0 0 0 1.000000 0 0 0 1.000000 0"/></filter></defs><g filter="url(#a)" transform="translate(-1008 -158)" fill="none" fill-rule="evenodd"><path fill="currentColor" d="M1028 163a1 1 0 010 2h-1v13a2 2 0 01-2 2h-10a2 2 0 01-2-2v-13h-1a1 1 0 010-2h16zm-3 2h-10v13h10v-13zm-7 2a1 1 0 011 1v7a1 1 0 01-2 0v-7a1 1 0 011-1zm4 0a1 1 0 011 1v7a1 1 0 01-2 0v-7a1 1 0 011-1zm1-7a1 1 0 010 2h-6a1 1 0 010-2h6z"/></g></svg>
