<svg xmlns="http://www.w3.org/2000/svg" width="20" height="20"><g fill="none" fill-rule="evenodd"><path d="M0 0h20v20H0z"/><path fill="currentColor" d="M17 1a2 2 0 012 2v2a1 1 0 01-2 0V3.5a.5.5 0 00-.5-.5h-13a.5.5 0 00-.5.5v13a.5.5 0 00.5.5h13a.5.5 0 00.5-.5V15a1 1 0 012 0v2a2 2 0 01-2 2H3a2 2 0 01-2-2V3a2 2 0 012-2h14zm-3.667 6l.038.04 2.334 2.628a.5.5 0 010 .664l-2.334 2.627a.942.942 0 01-1.33.08L12 13l-.01-.009a1 1 0 01-.009-1.405l.571-.586H7a1 1 0 010-2h5.553l-.57-.586a.999.999 0 01.008-1.405l.01-.009a.942.942 0 011.332 0z"/></g></svg>