<svg xmlns="http://www.w3.org/2000/svg" width="24" height="24"><g fill="none" fill-rule="evenodd"><path d="M0 0h24v24H0z"/><path fill="currentColor" fill-rule="nonzero" d="M8 12a4.002 4.002 0 013.876 3.007h.007L12 15h9a1 1 0 01.117 1.993L21 17h-9c-.042 0-.084-.003-.125-.008A4 4 0 014.126 17H3a1 1 0 01-.117-1.993L3 15h1.126c.444-1.725 2.01-3 3.874-3zm0 2a2 2 0 10-.001 3.999A2 2 0 008 14zm8-10a4.002 4.002 0 013.874 3H21a1 1 0 01.117 1.993L21 9h-1.126a4.002 4.002 0 01-7.75-.007h-.007L12 9H3a1 1 0 01-.117-1.993L3 7h9c.042 0 .084.003.125.008A4 4 0 0116 4zm0 2a2 2 0 10-.001 3.999A2 2 0 0016 6z"/></g></svg>
