<svg xmlns="http://www.w3.org/2000/svg" width="20" height="20"><path d="M4.424 11.01a1 1 0 01-.436 1.345C2.674 13.026 2 13.831 2 14.557c0 1.71 3.512 3.445 8 3.445 4.488 0 8-1.734 8-3.445 0-.687-.602-1.445-1.792-2.098a1 1 0 11.961-1.754c1.767.969 2.831 2.31 2.831 3.852 0 3.199-4.547 5.445-10 5.445S0 17.756 0 14.557c0-1.615 1.164-3.006 3.079-3.983a1 1 0 011.345.436zM10 0c3.6 0 6 2.337 6 5.92 0 2.389-1.845 5.393-5.536 9.862a.601.601 0 01-.927 0C5.846 11.313 4 8.309 4 5.92 4 2.337 6.4 0 10 0zm0 1.973c-2.527 0-4 1.592-4 4.028 0 1.473 1.143 3.657 3.43 6.554l.258.325a.4.4 0 00.623.001C12.772 9.82 14 7.527 14 6c0-2.436-1.473-4.028-4-4.028z" fill="currentColor" fill-rule="nonzero"/></svg>