<svg xmlns="http://www.w3.org/2000/svg" width="20" height="20"><g fill="none" fill-rule="evenodd"><path fill="currentColor" fill-rule="nonzero" d="M10 0a8 8 0 018 8c0 3.18-1.46 5.73-4.38 9.065l-.583.653c-.402.44-.827.89-1.277 1.349l-.342.346a2.003 2.003 0 01-2.707.117l-.127-.117-.342-.346C4.082 14.82 2 11.602 2 8a8 8 0 018-8zm0 2C6.686 2 4 5 4 8s1.746 5.596 5.351 9.338l.314.323L10 18l.324-.326C14.043 13.88 16 11 16 8c0-3-2.686-6-6-6zm.145 2.483l.104.002c.33.032.57.327.537.656L10.5 8h2a.5.5 0 01.4.8l-2.609 3.478a.6.6 0 01-1.077-.419L9.5 9h-2a.5.5 0 01-.4-.8l2.609-3.478a.6.6 0 01.54-.237z"/><path d="M0 0h20v20H0z"/></g></svg>