<svg xmlns="http://www.w3.org/2000/svg" width="20" height="20"><path d="M4 12c2.21 0 4 1.79 4 4s-1.79 4-4 4-4-1.79-4-4 1.79-4 4-4zm12 0c2.21 0 4 1.79 4 4s-1.79 4-4 4-4-1.79-4-4 1.79-4 4-4zM4 14a2 2 0 10-.001 3.999A2 2 0 004 14zm12 0a2 2 0 10-.001 3.999A2 2 0 0016 14zM4 0c2.21 0 4 1.79 4 4S6.21 8 4 8 0 6.21 0 4s1.79-4 4-4zm12 0c2.21 0 4 1.79 4 4s-1.79 4-4 4-4-1.79-4-4 1.79-4 4-4zM4 2a2 2 0 10-.001 3.999A2 2 0 004 2zm12 0a2 2 0 10-.001 3.999A2 2 0 0016 2z" fill="currentColor" fill-rule="evenodd"/></svg>