<svg xmlns="http://www.w3.org/2000/svg" width="16" height="16"><g fill="none" fill-rule="evenodd"><path d="M0 0h16v16H0z"/><path fill="currentColor" fill-rule="nonzero" d="M12 1.072a1 1 0 01.419 1.261l-.053.105-7 12.124a1 1 0 01-1.785-.895l.053-.105 7-12.124A1 1 0 0112 1.072zm.937 3.47c.98.7 1.867 1.64 2.657 2.818l.257.396c.077.125.09.277.038.411l-.039.078C13.867 11.415 11.25 13 8 13a.334.334 0 01-.288-.499l.627-1.087a1 1 0 01.722-.49l.013-.002c1.668-.25 3.087-1.11 4.313-2.647L13.598 8l-.02-.027c-.534-.712-1.105-1.29-1.719-1.742a.514.514 0 01-.14-.67l.496-.861a.499.499 0 01.721-.157zM8 3a.335.335 0 01.289.5l-.615 1.066a.94.94 0 01-.667.5c-1.704.235-3.148 1.097-4.394 2.659L2.401 8l.02.028a8.507 8.507 0 001.595 1.648c.28.216.357.606.18.912l-.386.67a.544.544 0 01-.791.168c-.987-.714-1.877-1.671-2.67-2.872l-.194-.3a.476.476 0 010-.506l.026-.042C2.16 4.57 4.766 3 8 3z"/></g></svg>
