<svg xmlns="http://www.w3.org/2000/svg" width="16" height="16"><path d="M7.577 0c4.326 0 7.42 2.667 7.42 7.5 0 1.825-.509 3.255-1.526 4.29l2.36 1.83c.158.158.169.315.169.538 0 .465-.538.842-1.003.842H7.498C3.314 15 0 11.765 0 7.579S3.252 0 7.577 0zm0 2a5.56 5.56 0 00-3.944 1.634A5.597 5.597 0 002 7.579c0 1.522.594 2.876 1.576 3.848l.19.18C4.746 12.483 6.054 13 7.499 13h4.77l-.844-.565a.998.998 0 01-.085-1.598C12.446 9.91 13 8.824 13 7.58c0-1.659-.408-3.042-1.377-4.011C10.602 2.546 9.16 2 7.577 2zM8 5h2a1 1 0 010 2H8a1 1 0 010-2zM5 8h2a1 1 0 010 2H5a1 1 0 010-2zm0-3a1 1 0 110 2 1 1 0 010-2zm5 3a1 1 0 110 2 1 1 0 010-2z" fill="currentColor" fill-rule="nonzero"/></svg>