<svg xmlns="http://www.w3.org/2000/svg" width="20" height="20"><path d="M10.638 1.558C12.848.405 15.128.071 16.814.01L17.28 0l.429.002.39.011.178.008c.872.042 1.578.748 1.702 1.703l.015.36.005.197.001.423-.01.46-.025.493-.043.524c-.15 1.524-.546 3.37-1.479 5.186-.697 1.434-1.9 2.904-3.307 4.14l-.304.262-.208 2.783a1.726 1.726 0 01-.657 1.194l-.132.094-2.947 1.952a1.407 1.407 0 01-.706.207c-.166 0-.332-.041-.498-.124-.37-.148-.607-.46-.713-.819l-.034-.136-.332-2.202c-.48.037-.96-.09-1.323-.381l-.13-.117-3.363-3.365c-.336-.373-.538-.814-.514-1.293l.016-.16-2.2-.333a1.352 1.352 0 01-.955-.747 1.13 1.13 0 01.008-1.079l.075-.126L2.17 6.168c.262-.41.658-.687 1.128-.769l.159-.02 2.781-.207c1.287-1.496 2.906-2.825 4.4-3.614zm-5.93 13.734a1 1 0 01.082 1.32l-.083.095-3 3a1 1 0 01-1.497-1.32l.083-.095 3-3a1 1 0 011.414 0zm2 2a1 1 0 01.082 1.32l-.083.095-1 1a1 1 0 01-1.497-1.32l.083-.095 1-1a1 1 0 011.414 0zm6.304-2.235l-.32.204-.583.381c-.466.303-.898.565-1.43.772l-.332.117.29 1.434 2.18-1.447a.371.371 0 00.07-.084l.013-.041.112-1.336zM2.707 13.292a1 1 0 01.083 1.32l-.083.095-1 1a1 1 0 01-1.497-1.32l.083-.095 1-1a1 1 0 011.414 0zM10 14.562l-4.566-4.57-.213.575a5.496 5.496 0 00-.257.87c0 .027 0 .055.013.083l.029.041 3.362 3.364c.042.042.083.042.125.042.365-.066.818-.18 1.219-.307l.288-.098zm8.093-12.838l-.368-.014c-1.422-.029-3.6.213-5.893 1.337l-.314.16c-1.328.664-2.252 1.411-3.415 2.782-.545.69-1.053 1.531-1.45 2.315l-.163.332 5.028 4.831c.654-.311 1.281-.78 1.887-1.275l.598-.5c1.37-1.12 2.045-2.118 2.751-3.447 1.37-2.658 1.63-4.942 1.505-6.355a.179.179 0 00-.166-.166zM5.006 6.99l-1.453.125c-.028 0-.056.018-.083.043l-.042.04-1.447 2.169 1.572.229c.221-.692.516-1.195.873-1.737l.58-.869z" fill="currentColor" fill-rule="nonzero"/></svg>