<svg xmlns="http://www.w3.org/2000/svg" width="14" height="14" viewBox="0 0 14 14">
    <g fill="none" fill-rule="evenodd">
        <g fill="currentColor">
            <path d="M7 0c3.866 0 7 3.134 7 7s-3.134 7-7 7-7-3.134-7-7 3.134-7 7-7zm0 2C4.239 2 2 4.239 2 7s2.239 5 5 5 5-2.239 5-5-2.239-5-5-5zM5.707 4.293L7 5.585l1.293-1.292c.39-.39 1.024-.39 1.414 0 .39.39.39 1.024 0 1.414L8.415 7l1.292 1.293c.36.36.388.928.083 1.32l-.083.094c-.39.39-1.024.39-1.414 0L7 8.415 5.707 9.707c-.39.39-1.024.39-1.414 0-.39-.39-.39-1.024 0-1.414L5.585 7 4.293 5.707c-.36-.36-.388-.928-.083-1.32l.083-.094c.39-.39 1.024-.39 1.414 0z"/>
        </g>
    </g>
</svg>
