<svg xmlns="http://www.w3.org/2000/svg" width="16" height="16"><defs><filter id="a"><feColorMatrix in="SourceGraphic" values="0 0 0 0 1.000000 0 0 0 0 1.000000 0 0 0 0 1.000000 0 0 0 1.000000 0"/></filter></defs><g filter="url(#a)" transform="translate(-712 -440)" fill="none" fill-rule="evenodd"><path fill="currentColor" d="M712 441.355c.02-.683.568-1.252 1.244-1.325l2.86-.03c.576-.01 1.296.374 1.361 1.173.133 1.35.191 1.925.306 3.161.016.177-.013.422-.155.565l-2.15 2.15c.342 1.024.692 2.073 2.074 3.455 1.383 1.382 2.408 1.724 3.457 2.073l2.161-2.167a.58.58 0 01.517-.155c1.277.225 1.575.277 3.067.53.934.146 1.266.376 1.258 1.14-.015 1.446-.011 1.809-.03 2.903-.02.664-.561 1.166-1.305 1.17-4.533.056-7.99-1.585-10.507-4.112-2.518-2.526-4.058-5.901-4.158-10.531z"/></g></svg>
