<svg xmlns="http://www.w3.org/2000/svg" width="16" height="16"><defs><filter id="a"><feColorMatrix in="SourceGraphic" values="0 0 0 0 0.000000 0 0 0 0 0.321569 0 0 0 0 0.800000 0 0 0 1.000000 0"/></filter></defs><g filter="url(#a)" transform="translate(-450 -712)" fill="none" fill-rule="evenodd"><path fill="currentColor" fill-rule="nonzero" d="M458 712a8 8 0 110 16 8 8 0 010-16zm0 2a6 6 0 100 12 6 6 0 000-12zm0 3a1 1 0 011 1v.999l1 .001a1 1 0 010 2l-1-.001V722a1 1 0 01-2 0v-1.001l-1 .001a1 1 0 010-2l1-.001V718a1 1 0 011-1z"/></g></svg>
