<svg xmlns="http://www.w3.org/2000/svg" width="16" height="16"><path fill="currentColor" d="M0 1.355C.02.672.568.103 1.244.03L4.104 0C4.68-.01 5.4.374 5.465 1.173c.133 1.35.191 1.925.306 3.161.016.177-.013.422-.155.565l-2.15 2.15c.342 1.024.692 2.073 2.074 3.455 1.383 1.382 2.408 1.724 3.457 2.073l2.161-2.167a.58.58 0 01.517-.155c1.277.225 1.575.277 3.067.53.934.146 1.266.376 1.258 1.14-.015 1.446-.011 1.809-.03 2.903-.02.664-.561 1.166-1.305 1.17-4.533.056-7.99-1.585-10.507-4.112C1.64 9.36.1 5.985 0 1.355z" fill-rule="evenodd"/></svg>
