<svg xmlns="http://www.w3.org/2000/svg" width="16" height="16"><g fill="none" fill-rule="evenodd"><path fill="currentColor" d="M836-325H-44v924h880z"/><path fill="currentColor" d="M-12 503h816c6.627 0 12-5.373 12-12v-716c0-6.627-5.373-12-12-12H-12c-6.627 0-12 5.373-12 12v716c0 6.627 5.373 12 12 12z"/><path fill="#F7FAFF" d="M0-79h792c6.627 0 12 5.373 12 12v83c0 6.627-5.373 12-12 12H0c-6.627 0-12-5.373-12-12v-83c0-6.627 5.373-12 12-12z"/><path d="M8 0a8 8 0 110 16A8 8 0 018 0zm0 2a6 6 0 100 12A6 6 0 008 2zM6 4c.552 0 1 .453 1 .997v6.006a.995.995 0 01-.883.99L6 12c-.552 0-1-.453-1-.997V4.997C5 4.447 5.444 4 6 4zm4 0c.552 0 1 .453 1 .997v6.006a.995.995 0 01-.883.99L10 12c-.552 0-1-.453-1-.997V4.997C9 4.447 9.444 4 10 4z" fill="#0052CC"/></g></svg>
