<svg xmlns="http://www.w3.org/2000/svg" width="16" height="16" viewBox="0 0 16 16">
    <g fill="none" fill-rule="evenodd">
        <g>
            <g>
                <path fill="#FFB900" d="M8 16c-4.418 0-8-3.582-8-8s3.582-8 8-8 8 3.582 8 8-3.582 8-8 8z" transform="translate(-176 -362) translate(176 362)"/>
                <path fill="#FFF" d="M5 5.99C5 5.445 5.444 5 6 5c.552 0 1 .451 1 .99v4.02c0 .546-.444.99-1 .99-.552 0-1-.451-1-.99V5.99zM9 5.99c0-.546.444-.99 1-.99.552 0 1 .451 1 .99v4.02c0 .546-.444.99-1 .99-.552 0-1-.451-1-.99V5.99z" transform="translate(-176 -362) translate(176 362)"/>
            </g>
        </g>
    </g>
</svg>
