<svg xmlns="http://www.w3.org/2000/svg" width="16" height="16"><g fill="none" fill-rule="evenodd"><path fill="currentColor" d="M10.764 2a2 2 0 011.789 1.106L13 4h1a2 2 0 012 2v7a2 2 0 01-2 2H2a2 2 0 01-2-2V6a2 2 0 012-2h1l.447-.894A2.002 2.002 0 015.237 2h5.527zm-.011 2H5.247a.402.402 0 00-.358.221L4.111 5.78a.402.402 0 01-.358.221H2.6a.6.6 0 00-.6.6v5.8a.6.6 0 00.6.6h10.8a.6.6 0 00.6-.6V6.6a.6.6 0 00-.6-.6h-1.153a.402.402 0 01-.358-.221l-.778-1.558A.402.402 0 0010.753 4zM8 6a3 3 0 110 6 3 3 0 010-6zm0 2a1 1 0 100 2 1 1 0 000-2z"/><path d="M0 0h16v16H0z"/></g></svg>