<svg xmlns="http://www.w3.org/2000/svg" width="16" height="16"><g fill="none" fill-rule="evenodd"><circle cx="8" cy="8" r="8" fill="#8F92A1"/><path fill="#FFF" d="M8.713 8.408c.072-.192.184-.36.334-.506a2.92 2.92 0 01.577-.42c.279-.159.52-.338.726-.536.205-.199.364-.427.479-.686.114-.258.171-.554.171-.888 0-.5-.13-.926-.388-1.28s-.614-.625-1.069-.812C9.09 3.093 8.566 3 7.976 3c-.538 0-1.03.092-1.475.276a2.456 2.456 0 00-1.073.835c-.079.108-.15.259-.214.451a.733.733 0 00.695.964h.17a.998.998 0 00.885-.536 1.06 1.06 0 01.455-.413c.172-.08.355-.121.548-.121.199 0 .38.04.545.12a.97.97 0 01.394.342.92.92 0 01.147.518.991.991 0 01-.129.503c-.086.15-.202.286-.347.41-.146.122-.31.24-.495.355a3.058 3.058 0 00-.632.496 1.774 1.774 0 00-.399.72 1.027 1.027 0 00-.029.167.826.826 0 00.822.913h.01a.92.92 0 00.859-.592zM8 12a1 1 0 100-2 1 1 0 000 2z"/></g></svg>