<svg xmlns="http://www.w3.org/2000/svg" width="16" height="16"><path fill="currentColor" d="M5 8a1 1 0 010 2h-.465a3.999 3.999 0 006.397.721 3.49 3.49 0 00.251-.312A1 1 0 0111.99 10h.572a.7.7 0 01.606 1.05l-.031.052A5.997 5.997 0 018 14a5.993 5.993 0 01-5.001-2.684L3 12a1 1 0 01-2 0V9a1 1 0 011-1h3zm3-6a5.993 5.993 0 015 2.683V4a1 1 0 012 0v3a1 1 0 01-1 1h-3a1 1 0 010-2h.465a3.999 3.999 0 00-6.438-.676c-.06.067-.131.156-.211.265A1 1 0 014.008 6h-.57a.692.692 0 01-.607-1.023c.092-.17.178-.31.257-.424A5.995 5.995 0 018 2z" fill-rule="evenodd"/></svg>
