<svg xmlns="http://www.w3.org/2000/svg" width="20" height="20"><path d="M18.366 10.661a.986.986 0 010-1.32l1.303-1.44a.986.986 0 00.122-1.17l-2.036-3.46a1.025 1.025 0 00-1.089-.48l-1.914.38a1.018 1.018 0 01-1.17-.66L12.96.681a1.02 1.02 0 00-.967-.68h-4.07a1.018 1.018 0 00-1.018.68l-.57 1.83c-.165.48-.667.763-1.17.66L3.2 2.791a1.025 1.025 0 00-1.018.48L.146 6.731a.987.987 0 00.102 1.17l1.293 1.44a.988.988 0 010 1.32l-1.293 1.44a.985.985 0 00-.102 1.17l2.036 3.46c.22.375.658.568 1.089.48l1.913-.38a1.021 1.021 0 011.171.66l.62 1.83c.146.426.563.704 1.019.68h4.071c.438.001.827-.272.967-.68l.621-1.83a1.02 1.02 0 011.17-.66l1.914.38c.43.088.87-.105 1.09-.48l2.035-3.46a.985.985 0 00-.122-1.17l-1.374-1.44zm-1.517 1.34l.815.9-1.303 2.22-1.201-.24c-1.518-.304-3.027.555-3.512 2l-.387 1.12H8.655l-.366-1.14c-.485-1.445-1.994-2.304-3.512-2l-1.2.24-1.324-2.21.814-.9a2.96 2.96 0 000-4l-.814-.9 1.303-2.2 1.201.24c1.517.305 3.027-.555 3.512-2l.386-1.13h2.606l.387 1.14c.485 1.445 1.994 2.305 3.512 2l1.2-.24 1.304 2.22-.815.9a2.962 2.962 0 000 3.98zM10 6c-2.21 0-4 1.79-4 4s1.79 4 4 4a3.999 3.999 0 100-8zm-.006 6.001a2 2 0 11-.001-3.999 2 2 0 01.001 3.999z" fill="currentColor" fill-rule="evenodd"/></svg>