<svg xmlns="http://www.w3.org/2000/svg" width="20" height="20"><path d="M9.985 1.01a.996.996 0 01-.884 1.098 7.975 7.975 0 00-7.108 7.927 7.973 7.973 0 0015.892.92.997.997 0 111.98.227C19.291 16.185 15.042 20 9.965 20 4.462 20 0 15.538 0 10.035 0 4.932 3.853.669 8.887.127a.996.996 0 011.098.884zm.005 3.943a.997.997 0 01-.789 1.168 3.987 3.987 0 104.664 4.75.996.996 0 111.948.415 5.98 5.98 0 11-6.991-7.122.998.998 0 011.168.79zM12.832.001c1.422.057 2.958.91 4.608 2.56 1.65 1.65 2.502 3.185 2.56 4.607a1 1 0 01-.804 1.02L11.92 9.643a1.994 1.994 0 11-1.563-1.563L11.812.804a1 1 0 011.02-.803z" fill="currentColor" fill-rule="nonzero"/></svg>