<svg xmlns="http://www.w3.org/2000/svg" width="20" height="20"><path d="M10 1c1.105 0 2.105.448 2.828 1.172A3.984 3.984 0 0114 5a3.984 3.984 0 01-1.172 2.828A3.984 3.984 0 0110 9a3.984 3.984 0 01-2.828-1.172A3.984 3.984 0 016 5c0-1.105.448-2.105 1.172-2.828A3.984 3.984 0 0110 1zm0 8c1.926 0 3.665.842 4.926 2.193C16.21 12.569 17 14.473 17 16.57 15.322 18.29 12.978 19 10 19c-2.859 0-5.133-.655-6.79-2.039-.201-2.366.576-4.317 1.85-5.72C6.32 9.85 8.066 9 10 9z" fill-rule="nonzero" stroke="currentColor" stroke-width="2" fill="none"/></svg>
