<svg xmlns="http://www.w3.org/2000/svg" width="20" height="24"><path d="M10 0a6 6 0 013.714 10.713 10.002 10.002 0 016.282 9.5l-.004.13a1 1 0 01-.35.721C17.345 23.021 14.131 24 10 24c-3.984 0-7.115-.91-9.392-2.73l-.25-.206a1.002 1.002 0 01-.35-.722 10.005 10.005 0 016.279-9.63A6 6 0 0110 0zm0 12a8.001 8.001 0 00-7.985 7.504l-.009.19.217.135C4.425 21.17 6.5 22 10 22s5.458-.76 7.778-2.17l.215-.136-.008-.19a8 8 0 00-7.736-7.5L10 12zm0-10C7.79 2 6 3.79 6 6s1.79 4 4 4 4-1.79 4-4-1.79-4-4-4z" fill="currentColor" fill-rule="nonzero"/></svg>