<svg xmlns="http://www.w3.org/2000/svg" width="16" height="16"><g fill="none" fill-rule="evenodd"><path fill="currentColor" d="M8 3c3.086 0 5.6 1.428 7.543 4.285l.2.3c.16.251.162.574.001.825-.031.05-.06.093-.084.13C13.702 11.513 11.148 13 8 13 4.89 13 2.359 11.548.41 8.645l-.2-.305a.632.632 0 01-.001-.678l.03-.049C2.212 4.538 4.8 3 8 3zm0 2c-2.144 0-3.906.868-5.387 2.725L2.401 8l.02.028c1.46 1.945 3.196 2.895 5.312 2.967L8 11c2.144 0 3.906-.868 5.387-2.725L13.598 8l-.02-.027c-1.458-1.945-3.195-2.895-5.311-2.967L8 5zm0 1a2 2 0 11.001 3.999A2 2 0 018 6z"/><path d="M0 0h16v16H0z"/></g></svg>