<svg xmlns="http://www.w3.org/2000/svg" width="16" height="16"><g fill="none" fill-rule="evenodd"><path fill="currentColor" fill-rule="nonzero" d="M9 2a3 3 0 012.995 2.824L12 5v.92c.127-.133.267-.254.418-.361l2-1.43A1.003 1.003 0 0116 4.943v6.114a1 1 0 01-1.581.814l-2.001-1.43a3.031 3.031 0 01-.418-.36V11a3 3 0 01-2.824 2.995L9 14H3a3 3 0 01-2.995-2.824L0 11V5a3 3 0 012.824-2.995L3 2h6zm0 2H3a1 1 0 00-.993.883L2 5v6a1 1 0 00.883.993L3 12h6a1 1 0 00.993-.883L10 11V5a1 1 0 00-.883-.993L9 4z"/><path d="M0 0h16v16H0z"/></g></svg>