<svg xmlns="http://www.w3.org/2000/svg" width="16" height="16"><defs><filter id="a"><feColorMatrix in="SourceGraphic" values="0 0 0 0 1.000000 0 0 0 0 1.000000 0 0 0 0 1.000000 0 0 0 1.000000 0"/></filter></defs><g filter="url(#a)" transform="translate(-1135 -556)" fill="none" fill-rule="evenodd"><path fill="currentColor" fill-rule="nonzero" d="M1148 556a3 3 0 012.995 2.824l.005.176v10a3 3 0 01-2.824 2.995L1148 572h-10a3 3 0 01-2.995-2.824L1135 569v-10a3 3 0 012.824-2.995L1138 556h10zm1 6h-12v7a1 1 0 00.883.993l.117.007h10a1 1 0 00.993-.883L1149 569v-7zm-7 2a1 1 0 011 1v2a1 1 0 01-1 1h-2a1 1 0 01-1-1v-2a1 1 0 011-1h2zm4 0a1 1 0 110 2 1 1 0 010-2zm2-6h-10a1 1 0 00-.993.883L1137 559v1h12v-1a1 1 0 00-.883-.993L1148 558z"/></g></svg>
