<svg xmlns="http://www.w3.org/2000/svg" width="16" height="16"><g fill="none" fill-rule="evenodd"><path fill="currentColor" fill-rule="nonzero" d="M9.69.458a3.615 3.615 0 011.382 1.457l4.493 8.61c.934 1.788.315 4.034-1.382 5.018-.518.3-1.099.457-1.69.457H3.506C1.57 16 0 14.346 0 12.305c0-.622.15-1.235.434-1.78l4.494-8.61C5.86.127 7.993-.525 9.689.458zm-3.002 2.29l-.075.131-4.417 8.606a1.79 1.79 0 00-.196.818c0 .888.636 1.617 1.447 1.69l.136.007h8.833c.267 0 .53-.072.763-.21.724-.427 1.014-1.37.689-2.166l-.064-.139L9.387 2.88a1.646 1.646 0 00-.624-.669c-.724-.426-1.623-.183-2.075.537zM8 11a1 1 0 110 2 1 1 0 010-2zm0-7a1 1 0 011 1v4a1 1 0 01-2 0V5a1 1 0 011-1z"/><path d="M0 0h16v16H0z"/></g></svg>
