<svg xmlns="http://www.w3.org/2000/svg" width="298" height="46" viewBox="0 0 298 46">
    <g fill="none" fill-rule="evenodd">
        <g fill="currentColor" fill-rule="nonzero">
            <path d="M581.35 212c6.085-.014 9.14-2.748 9.168-8.203.013-5.373-3.042-8.108-9.167-8.203h-1.99c-2.105 0-3.158-.656-3.158-1.969 0-1.395 1.046-2.092 3.138-2.092h8.223c1.956-.04 2.954-1.073 2.995-3.096 0-2.024-1.026-3.036-3.077-3.036l-8.203-.02c-6.152 0-9.208 2.707-9.167 8.121-.013 5.537 3.076 8.292 9.27 8.265h1.99c2.023.027 3.034.717 3.034 2.07-.027 1.395-1.06 2.093-3.096 2.093h-8.286c-1.968.013-2.96 1.087-2.973 3.22.013 1.9 1.011 2.843 2.994 2.83l8.306.02zm16.407 8.265c2.05 0 3.076-1.046 3.076-3.138V212h7.219c6.152 0 9.228-3.145 9.228-9.434v-7.977c0-6.166-3.09-9.25-9.27-9.25h-10.294c-2.024 0-3.035 1.047-3.035 3.139v28.731c0 2.037 1.025 3.056 3.076 3.056zm10.254-14.417h-7.178v-14.315h7.178c2.078 0 3.117.991 3.117 2.974v8.182c0 2.106-1.04 3.159-3.117 3.159zm32.874 6.193c2.01 0 3.014-1.039 3.014-3.117v-20.487c0-2.024-1.025-3.036-3.076-3.036l-10.213-.02c-6.152 0-9.228 3.144-9.228 9.433v14.15c0 2.052 1.025 3.077 3.076 3.077 2.05 0 3.076-1.039 3.076-3.117l.02-5.127 10.193.02v5.107c0 2.078 1.046 3.117 3.138 3.117zm-3.138-14.417h-10.213v-2.933c0-2.105 1.046-3.158 3.138-3.158h7.075v6.091zm13.412 14.417c2.051 0 3.076-1.039 3.076-3.117V194.69c0-2.105 1.046-3.158 3.138-3.158h5.065v2.01c0 2.078 1.046 3.117 3.138 3.117 2.01 0 3.015-1.039 3.015-3.117v-5.106c0-2.024-1.026-3.036-3.076-3.036l-8.203-.02c-6.153 0-9.229 3.144-9.229 9.433v14.15c0 2.052 1.025 3.077 3.076 3.077zm24.589 0c2.01-.027 3.049-1.094 3.117-3.2v-17.308h7.178c2.078 0 3.117 1.053 3.117 3.158-.027 1.996-1.066 2.995-3.117 2.995l-2.174-.021c-1.996 0-2.994.998-2.994 2.994.041 2.065 1.06 3.117 3.056 3.158l4.737 6.706c.602 1.012 1.606 1.504 3.015 1.477 2.091 0 3.144-.957 3.158-2.871.04-1.477-.335-2.557-1.128-3.24l-1.764-2.113c2.242-1.271 3.364-4.258 3.364-8.962 0-6.289-3.077-9.433-9.229-9.433h-7.219v-5.127c0-2.092-1.025-3.138-3.076-3.138-2.05 0-3.076 1.019-3.076 3.056v28.752c0 2.078 1.012 3.117 3.035 3.117zm40.503 8.244l3.076-.04c2.05-.042 3.076-1.095 3.076-3.16.041-1.995-.984-2.993-3.076-2.993v-32.854c2.092-.013 3.11-1.046 3.056-3.096.027-2.024-.991-3.05-3.056-3.077l-3.117-.02c-2.023 0-3.035 1.046-3.035 3.138v39.005c0 2.038 1.025 3.07 3.076 3.097zm14.314-8.244c2.051 0 3.077-1.039 3.077-3.117V194.69c0-2.105 1.045-3.158 3.137-3.158h5.066v2.01c0 2.078 1.046 3.117 3.137 3.117 2.01 0 3.015-1.039 3.015-3.117v-5.106c0-2.024-1.025-3.036-3.076-3.036l-8.203-.02c-6.153 0-9.229 3.144-9.229 9.433v14.15c0 2.052 1.026 3.077 3.076 3.077zm41.057 0c2.01 0 3.015-1.039 3.015-3.117v-20.487c0-2.024-1.026-3.036-3.076-3.036l-10.213-.02c-6.153 0-9.229 3.144-9.229 9.433v14.15c0 2.052 1.026 3.077 3.076 3.077 2.051 0 3.076-1.039 3.076-3.117l.021-5.127 10.192.02v5.107c0 2.078 1.046 3.117 3.138 3.117zm-3.138-14.417h-10.213v-2.933c0-2.105 1.046-3.158 3.138-3.158h7.075v6.091zm29.921 14.417c2.01 0 3.015-1.039 3.015-3.117v-28.752c0-2.037-1.025-3.056-3.076-3.056s-3.076 1.046-3.076 3.138v5.127h-7.22c-6.152 0-9.228 3.144-9.228 9.433v7.999c0 6.152 3.097 9.228 9.29 9.228h10.295zm-3.137-6.173h-7.178c-2.078 0-3.117-.991-3.117-2.973v-8.204c0-2.105 1.046-3.158 3.137-3.158h7.158v14.335zm29.756 6.173c2.01 0 3.015-1.039 3.015-3.117v-20.487c0-2.024-1.025-3.036-3.076-3.036l-10.213-.02c-6.152 0-9.229 3.144-9.229 9.433v14.15c0 2.052 1.026 3.077 3.077 3.077 2.05 0 3.076-1.039 3.076-3.117l.02-5.127 10.193.02v5.107c0 2.078 1.046 3.117 3.137 3.117zm-3.137-14.417h-10.213v-2.933c0-2.105 1.046-3.158 3.138-3.158h7.075v6.091zm13.412 14.417c2.05 0 3.076-1.039 3.076-3.117V194.69c0-2.105 1.046-3.158 3.138-3.158h5.065v2.01c0 2.078 1.046 3.117 3.138 3.117 2.01 0 3.014-1.039 3.014-3.117v-5.106c0-2.024-1.025-3.036-3.076-3.036l-8.203-.02c-6.152 0-9.228 3.144-9.228 9.433v14.15c0 2.052 1.025 3.077 3.076 3.077zm28.69 8.244c2.051-.027 3.076-1.06 3.076-3.097v-39.005c0-2.092-1.011-3.138-3.035-3.138l-3.117.02c-2.064.028-3.083 1.053-3.056 3.077-.04 2.05.978 3.083 3.056 3.096v32.854c-2.078 0-3.103.998-3.076 2.994 0 2.064 1.025 3.117 3.076 3.158l3.076.041z" transform="translate(-570 -175)"/>
        </g>
    </g>
</svg>
