<svg xmlns="http://www.w3.org/2000/svg" xmlns:xlink="http://www.w3.org/1999/xlink" width="440" height="570" viewBox="0 0 440 570">
    <defs>
        <filter id="l56s27tjca" width="169.1%" height="163.3%" x="-34.5%" y="-24%" filterUnits="objectBoundingBox">
            <feMorphology in="SourceAlpha" operator="dilate" radius="1" result="shadowSpreadOuter1"/>
            <feOffset dy="1" in="shadowSpreadOuter1" result="shadowOffsetOuter1"/>
            <feGaussianBlur in="shadowOffsetOuter1" result="shadowBlurOuter1" stdDeviation="1"/>
            <feComposite in="shadowBlurOuter1" in2="SourceAlpha" operator="out" result="shadowBlurOuter1"/>
            <feColorMatrix in="shadowBlurOuter1" values="0 0 0 0 0 0 0 0 0 0 0 0 0 0 0 0 0 0 1 0"/>
        </filter>
        <path id="krl0miy1kb" d="M8 17s-2.206-1.699-2.982-3c-.776-1.301-2.247-2.959-1.988-4 .259-1.041 1.212-1.37 1.988-.588.776.78 1.299 2.472 1.816 2.212.517-.26.13-2.733-.388-4.164C5.93 6.028 5.39 3 6.446 3S7.503 4 8 5.5C8.497 7 8.109 9 8.497 9s.536-.35.536-1c0-.177.034-.326.104-.45.188-.332.63-.48 1.348-.48.985 0 .497 1.93.993 1.93.497 0 .497.041.497-1s.461-.93 1.455-.93S13.943 9 14.46 9c.518 0 0-1 .497-1s.994.158.994 2.5.28 2.459-.497 3.5l-1.49 2s0 1-.534 1c-.533 0-.808-1-1.455-1-.646 0-.993 1-.993 1H8zm5.963-2.462v-3.076c0-.255-.206-.462-.461-.462s-.462.207-.462.462v3.076c0 .255.207.462.462.462s.461-.207.461-.462zM11.5 15c.276 0 .5-.224.5-.5v-3c0-.276-.224-.5-.5-.5s-.5.224-.5.5v3c0 .276.224.5.5.5zm-2 0c.276 0 .5-.224.5-.5v-3c0-.276-.224-.5-.5-.5s-.5.224-.5.5v3c0 .276.224.5.5.5z"/>
    </defs>
    <g fill="none" fill-rule="evenodd">
        <g>
            <g>
                <text fill="#181818" font-family="Inter-Regular_Bold, Inter" font-size="18" font-weight="bold" letter-spacing="-.375" transform="translate(-980 -40) translate(980 40)">
                    <tspan x="0" y="17">История кампаний</tspan>
                </text>
                <path fill="#FCFCFF" stroke="#F4F4F6" d="M428 115.5c3.176 0 6.05 1.287 8.132 3.368 2.08 2.081 3.368 4.956 3.368 8.132h0v72c0 3.176-1.287 6.05-3.368 8.132-2.081 2.08-4.956 3.368-8.132 3.368h0H12c-3.176 0-6.05-1.287-8.132-3.368C1.788 205.05.5 202.176.5 199h0v-72c0-3.176 1.287-6.05 3.368-8.132C5.95 116.788 8.824 115.5 12 115.5h0zM428 294.5c3.176 0 6.05 1.287 8.132 3.368 2.08 2.081 3.368 4.956 3.368 8.132h0v72c0 3.176-1.287 6.05-3.368 8.132-2.081 2.08-4.956 3.368-8.132 3.368h0H12c-3.176 0-6.05-1.287-8.132-3.368C1.788 384.05.5 381.176.5 378h0v-72c0-3.176 1.287-6.05 3.368-8.132C5.95 295.788 8.824 294.5 12 294.5h0zM428 474.5c3.176 0 6.05 1.287 8.132 3.368 2.08 2.081 3.368 4.956 3.368 8.132h0v72c0 3.176-1.287 6.05-3.368 8.132-2.081 2.08-4.956 3.368-8.132 3.368h0H12c-3.176 0-6.05-1.287-8.132-3.368C1.788 564.05.5 561.176.5 558h0v-72c0-3.176 1.287-6.05 3.368-8.132C5.95 475.788 8.824 474.5 12 474.5h0z" transform="translate(-980 -40) translate(980 40)"/>
                <path fill="#00875A" fill-rule="nonzero" d="M236.624 153c.476.005.865.382.885.857.02.476-.336.884-.81.929-4.047.424-7.076 3.905-6.935 7.97.142 4.065 3.405 7.328 7.472 7.47 4.067.142 7.55-2.884 7.976-6.93.033-.405.335-.738.735-.811.052-.01.105-.014.158-.014.254 0 .495.108.664.296.171.187.253.438.226.69-.497 4.857-4.594 8.55-9.48 8.543-5.064-.006-9.24-3.974-9.502-9.032-.263-5.057 3.48-9.436 8.518-9.968zm-.715 4.03c.262.002.51.119.677.32.173.203.247.472.203.735-.053.314-.27.574-.569.682-1.73.605-2.813 2.325-2.608 4.146.205 1.821 1.643 3.258 3.465 3.463 1.822.205 3.543-.877 4.148-2.607.108-.298.368-.516.682-.568.052-.01.105-.014.158-.014.292.001.565.143.733.381.166.23.208.525.114.792-.88 2.52-3.386 4.097-6.04 3.8-2.653-.297-4.748-2.39-5.048-5.042-.3-2.652 1.277-5.158 3.797-6.04.093-.031.19-.048.288-.048zm3.548-3.859c.214-.133.475-.171.718-.104 3.275.92 5.836 3.475 6.76 6.747.068.245.029.507-.107.72-.136.215-.357.361-.607.404l-7.002 1.234c.114.644-.146 1.297-.67 1.688-.525.39-1.225.452-1.81.158-.585-.293-.954-.891-.953-1.545-.003-.512.222-1 .615-1.328.392-.33.91-.467 1.415-.375l1.234-6.999c.046-.248.194-.466.407-.6zM236.624 332c.476.005.865.382.885.857.02.476-.336.884-.81.929-4.047.424-7.076 3.905-6.935 7.97.142 4.065 3.405 7.328 7.472 7.47 4.067.142 7.55-2.884 7.976-6.93.033-.405.335-.738.735-.811.052-.01.105-.014.158-.014.254 0 .495.108.664.296.171.187.253.438.226.69-.497 4.857-4.594 8.55-9.48 8.543-5.064-.006-9.24-3.974-9.502-9.032-.263-5.057 3.48-9.436 8.518-9.968zm-.715 4.03c.262.002.51.119.677.32.173.203.247.472.203.735-.053.314-.27.574-.569.682-1.73.605-2.813 2.325-2.608 4.146.205 1.821 1.643 3.258 3.465 3.463 1.822.205 3.543-.877 4.148-2.607.108-.298.368-.516.682-.568.052-.01.105-.014.158-.014.292.001.565.143.733.381.166.23.208.525.114.792-.88 2.52-3.386 4.097-6.04 3.8-2.653-.297-4.748-2.39-5.048-5.042-.3-2.652 1.277-5.158 3.797-6.04.093-.031.19-.048.288-.048zm3.548-3.859c.214-.133.475-.171.718-.104 3.275.92 5.836 3.475 6.76 6.747.068.245.029.507-.107.72-.136.215-.357.361-.607.404l-7.002 1.234c.114.644-.146 1.297-.67 1.688-.525.39-1.225.452-1.81.158-.585-.293-.954-.891-.953-1.545-.003-.512.222-1 .615-1.328.392-.33.91-.467 1.415-.375l1.234-6.999c.046-.248.194-.466.407-.6z" transform="translate(-980 -40) translate(980 40)"/>
                <path fill="#8F92A1" fill-rule="nonzero" d="M236.624 512c.476.005.865.382.885.857.02.476-.336.884-.81.929-4.047.424-7.076 3.905-6.935 7.97.142 4.065 3.405 7.328 7.472 7.47 4.067.142 7.55-2.884 7.976-6.93.033-.405.335-.738.735-.811.052-.01.105-.014.158-.014.254 0 .495.108.664.296.171.187.253.438.226.69-.497 4.857-4.594 8.55-9.48 8.543-5.064-.006-9.24-3.974-9.502-9.032-.263-5.057 3.48-9.436 8.518-9.968zm-.715 4.03c.262.002.51.119.677.32.173.203.247.472.203.735-.053.314-.27.574-.569.682-1.73.605-2.813 2.325-2.608 4.146.205 1.821 1.643 3.258 3.465 3.463 1.822.205 3.543-.877 4.148-2.607.108-.298.368-.516.682-.568.052-.01.105-.014.158-.014.292.001.565.143.733.381.166.23.208.525.114.792-.88 2.52-3.386 4.097-6.04 3.8-2.653-.297-4.748-2.39-5.048-5.042-.3-2.652 1.277-5.158 3.797-6.04.093-.031.19-.048.288-.048zm3.548-3.859c.214-.133.475-.171.718-.104 3.275.92 5.836 3.475 6.76 6.747.068.245.029.507-.107.72-.136.215-.357.361-.607.404l-7.002 1.234c.114.644-.146 1.297-.67 1.688-.525.39-1.225.452-1.81.158-.585-.293-.954-.891-.953-1.545-.003-.512.222-1 .615-1.328.392-.33.91-.467 1.415-.375l1.234-6.999c.046-.248.194-.466.407-.6z" transform="translate(-980 -40) translate(980 40)"/>
                <text fill="#181818" font-family="Inter-Regular_ExtraBold, Inter" font-size="32" font-weight="700" letter-spacing="-.667" transform="translate(-980 -40) translate(980 40)">
                    <tspan x="26" y="176">100</tspan>
                </text>
                <text fill="#181818" font-family="Inter-Regular_ExtraBold, Inter" font-size="32" font-weight="700" letter-spacing="-.667" transform="translate(-980 -40) translate(980 40)">
                    <tspan x="26" y="355">12</tspan>
                </text>
                <text fill="#8F92A1" font-family="Inter-Regular_ExtraBold, Inter" font-size="32" font-weight="700" letter-spacing="-.667" transform="translate(-980 -40) translate(980 40)">
                    <tspan x="26" y="535">0</tspan>
                </text>
                <text fill="#181818" font-family="Inter-Regular_ExtraBold, Inter" font-size="32" font-weight="700" letter-spacing="-.667" transform="translate(-980 -40) translate(980 40)">
                    <tspan x="142" y="176">5</tspan>
                </text>
                <text fill="#181818" font-family="Inter-Regular_ExtraBold, Inter" font-size="32" font-weight="700" letter-spacing="-.667" transform="translate(-980 -40) translate(980 40)">
                    <tspan x="142" y="355">1</tspan>
                </text>
                <text fill="#8F92A1" font-family="Inter-Regular_ExtraBold, Inter" font-size="32" font-weight="700" letter-spacing="-.667" transform="translate(-980 -40) translate(980 40)">
                    <tspan x="142" y="535">0</tspan>
                </text>
                <text fill="#181818" font-family="Inter-Regular_ExtraBold, Inter" font-size="32" font-weight="700" letter-spacing="-.667" transform="translate(-980 -40) translate(980 40)">
                    <tspan x="251" y="176">2</tspan>
                </text>
                <text fill="#181818" font-family="Inter-Regular_ExtraBold, Inter" font-size="32" font-weight="700" letter-spacing="-.667" transform="translate(-980 -40) translate(980 40)">
                    <tspan x="251" y="355">1</tspan>
                </text>
                <text fill="#8F92A1" font-family="Inter-Regular_ExtraBold, Inter" font-size="32" font-weight="700" letter-spacing="-.667" transform="translate(-980 -40) translate(980 40)">
                    <tspan x="251" y="535">0</tspan>
                </text>
                <text fill="#181818" font-family="Inter-Regular_ExtraBold, Inter" font-size="32" font-weight="700" letter-spacing="-.667" transform="translate(-980 -40) translate(980 40)">
                    <tspan x="362" y="176">1</tspan>
                </text>
                <text fill="#181818" font-family="Inter-Regular_ExtraBold, Inter" font-size="32" font-weight="700" letter-spacing="-.667" transform="translate(-980 -40) translate(980 40)">
                    <tspan x="362" y="355">1</tspan>
                </text>
                <text fill="#8F92A1" font-family="Inter-Regular_ExtraBold, Inter" font-size="32" font-weight="700" letter-spacing="-.667" transform="translate(-980 -40) translate(980 40)">
                    <tspan x="362" y="535">0</tspan>
                </text>
                <g>
                    <path d="M0 0H20V20H0z" transform="translate(-980 -40) translate(980 40) translate(338 153)"/>
                    <path fill="#0052CC" fill-rule="nonzero" d="M10.508 16.99C13.706 16.86 16 15.518 16 14.5c0-.393-.341-.834-.944-1.234-.07-.047-.16-.1-.27-.16-.4-.216-.55-.717-.333-1.118.023-.041.048-.08.077-.117l.108-.137c.31-.396.867-.499 1.3-.24.158.094.287.178.386.25C17.374 12.505 18 13.46 18 14.5c0 2.485-3.582 4.5-8 4.5s-8-2.015-8-4.5c0-1.12.727-2.145 1.931-2.932l.123-.077c.433-.262.992-.16 1.304.238l.112.142c.28.357.218.874-.139 1.154-.036.029-.074.054-.115.076-.06.033-.114.064-.159.092-.673.42-1.057.89-1.057 1.307 0 1.018 2.294 2.36 5.492 2.49L9.5 17h1l.008-.01zM13 6c0-1.895-1.105-3-3-3S7 4.105 7 6c0 .696.89 2.35 2.67 4.963.124.182.373.23.555.105.042-.028.077-.064.106-.105C12.11 8.35 13 6.696 13 6zm-3.386 8.034C6.538 10.293 5 8 5 6c0-3 2-5 5-5s5 2 5 5c0 2-1.538 4.293-4.614 8.034-.08.097-.188.157-.303.176-.138.023-.284-.011-.4-.107-.026-.02-.049-.044-.07-.069z" transform="translate(-980 -40) translate(980 40) translate(338 153)"/>
                </g>
                <g>
                    <path d="M0 0H20V20H0z" transform="translate(-980 -40) translate(980 40) translate(338 332)"/>
                    <path fill="#0052CC" fill-rule="nonzero" d="M10.508 16.99C13.706 16.86 16 15.518 16 14.5c0-.393-.341-.834-.944-1.234-.07-.047-.16-.1-.27-.16-.4-.216-.55-.717-.333-1.118.023-.041.048-.08.077-.117l.108-.137c.31-.396.867-.499 1.3-.24.158.094.287.178.386.25C17.374 12.505 18 13.46 18 14.5c0 2.485-3.582 4.5-8 4.5s-8-2.015-8-4.5c0-1.12.727-2.145 1.931-2.932l.123-.077c.433-.262.992-.16 1.304.238l.112.142c.28.357.218.874-.139 1.154-.036.029-.074.054-.115.076-.06.033-.114.064-.159.092-.673.42-1.057.89-1.057 1.307 0 1.018 2.294 2.36 5.492 2.49L9.5 17h1l.008-.01zM13 6c0-1.895-1.105-3-3-3S7 4.105 7 6c0 .696.89 2.35 2.67 4.963.124.182.373.23.555.105.042-.028.077-.064.106-.105C12.11 8.35 13 6.696 13 6zm-3.386 8.034C6.538 10.293 5 8 5 6c0-3 2-5 5-5s5 2 5 5c0 2-1.538 4.293-4.614 8.034-.08.097-.188.157-.303.176-.138.023-.284-.011-.4-.107-.026-.02-.049-.044-.07-.069z" transform="translate(-980 -40) translate(980 40) translate(338 332)"/>
                </g>
                <g>
                    <path d="M0 0H20V20H0z" transform="translate(-980 -40) translate(980 40) translate(338 512)"/>
                    <path fill="#8F92A1" fill-rule="nonzero" d="M10.508 16.99C13.706 16.86 16 15.518 16 14.5c0-.393-.341-.834-.944-1.234-.07-.047-.16-.1-.27-.16-.4-.216-.55-.717-.333-1.118.023-.041.048-.08.077-.117l.108-.137c.31-.396.867-.499 1.3-.24.158.094.287.178.386.25C17.374 12.505 18 13.46 18 14.5c0 2.485-3.582 4.5-8 4.5s-8-2.015-8-4.5c0-1.12.727-2.145 1.931-2.932l.123-.077c.433-.262.992-.16 1.304.238l.112.142c.28.357.218.874-.139 1.154-.036.029-.074.054-.115.076-.06.033-.114.064-.159.092-.673.42-1.057.89-1.057 1.307 0 1.018 2.294 2.36 5.492 2.49L9.5 17h1l.008-.01zM13 6c0-1.895-1.105-3-3-3S7 4.105 7 6c0 .696.89 2.35 2.67 4.963.124.182.373.23.555.105.042-.028.077-.064.106-.105C12.11 8.35 13 6.696 13 6zm-3.386 8.034C6.538 10.293 5 8 5 6c0-3 2-5 5-5s5 2 5 5c0 2-1.538 4.293-4.614 8.034-.08.097-.188.157-.303.176-.138.023-.284-.011-.4-.107-.026-.02-.049-.044-.07-.069z" transform="translate(-980 -40) translate(980 40) translate(338 512)"/>
                </g>
                <path fill="#FF991F" fill-rule="nonzero" d="M19 152c1.657 0 3 1.343 3 3v14c0 1.657-1.343 3-3 3h-8c-1.657 0-3-1.343-3-3v-14c0-1.657 1.343-3 3-3zm-7 2h-1c-.552 0-1 .448-1 1v14c0 .552.448 1 1 1h8c.552 0 1-.448 1-1v-14c0-.552-.448-1-1-1h-1c0 .552-.448 1-1 1h-4c-.552 0-1-.448-1-1zm4 13c.552 0 1 .448 1 1s-.448 1-1 1h-2c-.552 0-1-.448-1-1s.448-1 1-1h2zM19 331c1.657 0 3 1.343 3 3v14c0 1.657-1.343 3-3 3h-8c-1.657 0-3-1.343-3-3v-14c0-1.657 1.343-3 3-3zm-7 2h-1c-.552 0-1 .448-1 1v14c0 .552.448 1 1 1h8c.552 0 1-.448 1-1v-14c0-.552-.448-1-1-1h-1c0 .552-.448 1-1 1h-4c-.552 0-1-.448-1-1zm4 13c.552 0 1 .448 1 1s-.448 1-1 1h-2c-.552 0-1-.448-1-1s.448-1 1-1h2z" transform="translate(-980 -40) translate(980 40)"/>
                <path fill="#8F92A1" fill-rule="nonzero" d="M19 511c1.657 0 3 1.343 3 3v14c0 1.657-1.343 3-3 3h-8c-1.657 0-3-1.343-3-3v-14c0-1.657 1.343-3 3-3zm-7 2h-1c-.552 0-1 .448-1 1v14c0 .552.448 1 1 1h8c.552 0 1-.448 1-1v-14c0-.552-.448-1-1-1h-1c0 .552-.448 1-1 1h-4c-.552 0-1-.448-1-1zm4 13c.552 0 1 .448 1 1s-.448 1-1 1h-2c-.552 0-1-.448-1-1s.448-1 1-1h2z" transform="translate(-980 -40) translate(980 40)"/>
                <text fill="#4B87DF" font-family="Inter-Regular_ExtraBold, Inter" font-size="18" font-weight="700" transform="translate(-980 -40) translate(980 40)">
                    <tspan x="0" y="98">Котельники, Сосновая дом 2</tspan>
                </text>
                <text fill="#181818" font-family="Inter-Regular_ExtraBold, Inter" font-size="18" font-weight="700" transform="translate(-980 -40) translate(980 40)">
                    <tspan x="0" y="277">Денис геотриггер</tspan>
                </text>
                <text fill="#8F92A1" font-family="Inter-Regular_ExtraBold, Inter" font-size="18" font-weight="700" transform="translate(-980 -40) translate(980 40)">
                    <tspan x="0" y="457">Сергей Бакинские Комиссары</tspan>
                </text>
                <text fill="#181818" font-family="Inter-Regular_ExtraBold, Inter" font-size="32" font-weight="700" letter-spacing="-.667" transform="translate(-980 -40) translate(980 40)">
                    <tspan x="355" y="104">2,3%</tspan>
                </text>
                <text fill="#181818" font-family="Inter-Regular_ExtraBold, Inter" font-size="32" font-weight="700" letter-spacing="-.667" transform="translate(-980 -40) translate(980 40)">
                    <tspan x="361" y="283">1,2%</tspan>
                </text>
                <text fill="#8F92A1" font-family="Inter-Regular_ExtraBold, Inter" font-size="32" font-weight="700" letter-spacing="-.667" transform="translate(-980 -40) translate(980 40)">
                    <tspan x="382" y="463">0%</tspan>
                </text>
                <text fill="#8F92A1" font-family="Inter-Regular_Medium, Inter" font-size="12" font-weight="400" letter-spacing="-.25" transform="translate(-980 -40) translate(980 40)">
                    <tspan x="73" y="71">01.05 – 02.05.2020</tspan>
                </text>
                <text fill="#8F92A1" font-family="Inter-Regular_Medium, Inter" font-size="12" font-weight="400" letter-spacing="-.25" transform="translate(-980 -40) translate(980 40)">
                    <tspan x="73" y="250">01.05 – 02.05.2020</tspan>
                </text>
                <text fill="#8F92A1" font-family="Inter-Regular_Medium, Inter" font-size="12" font-weight="400" letter-spacing="-.25" transform="translate(-980 -40) translate(980 40)">
                    <tspan x="73" y="430">22.12 – 13.01.2021</tspan>
                </text>
                <g>
                    <path fill="#000" fill-rule="nonzero" d="M12.628 4.415c-1.053.764-1.58 1.683-1.58 2.759 0 1.287.65 2.275 1.952 2.964-.35 1.037-.855 1.94-1.517 2.709C10.82 13.616 10.216 14 9.669 14c-.258 0-.61-.087-1.055-.262l-.214-.085c-.437-.174-.823-.261-1.159-.261-.317 0-.664.068-1.041.205l-.269.099-.338.141c-.267.109-.536.163-.807.163-.639 0-1.345-.54-2.117-1.62C1.556 10.833 1 9.147 1 7.322c0-1.297.347-2.341 1.041-3.134C2.736 3.396 3.655 3 4.8 3c.428 0 .828.08 1.2.24l.255.107.27.113c.238.104.431.155.578.155.189 0 .398-.044.628-.134l.352-.141.262-.1c.418-.155.88-.233 1.386-.233 1.2 0 2.166.47 2.897 1.408zM9.978 0c.015.143.022.254.022.332 0 .709-.297 1.33-.892 1.866C8.514 2.733 7.823 3 7.035 3 7.012 2.84 7 2.725 7 2.656c0-.603.276-1.168.828-1.697C8.38.43 9.018.121 9.745.031c.052-.008.13-.019.234-.031z" transform="translate(-980 -40) translate(980 40) translate(195 59)"/>
                    <path d="M0 0H14V14H0z" transform="translate(-980 -40) translate(980 40) translate(195 59)"/>
                </g>
                <g>
                    <path fill="#000" fill-rule="nonzero" d="M12.628 4.415c-1.053.764-1.58 1.683-1.58 2.759 0 1.287.65 2.275 1.952 2.964-.35 1.037-.855 1.94-1.517 2.709C10.82 13.616 10.216 14 9.669 14c-.258 0-.61-.087-1.055-.262l-.214-.085c-.437-.174-.823-.261-1.159-.261-.317 0-.664.068-1.041.205l-.269.099-.338.141c-.267.109-.536.163-.807.163-.639 0-1.345-.54-2.117-1.62C1.556 10.833 1 9.147 1 7.322c0-1.297.347-2.341 1.041-3.134C2.736 3.396 3.655 3 4.8 3c.428 0 .828.08 1.2.24l.255.107.27.113c.238.104.431.155.578.155.189 0 .398-.044.628-.134l.352-.141.262-.1c.418-.155.88-.233 1.386-.233 1.2 0 2.166.47 2.897 1.408zM9.978 0c.015.143.022.254.022.332 0 .709-.297 1.33-.892 1.866C8.514 2.733 7.823 3 7.035 3 7.012 2.84 7 2.725 7 2.656c0-.603.276-1.168.828-1.697C8.38.43 9.018.121 9.745.031c.052-.008.13-.019.234-.031z" transform="translate(-980 -40) translate(980 40) translate(195 238)"/>
                    <path d="M0 0H14V14H0z" transform="translate(-980 -40) translate(980 40) translate(195 238)"/>
                </g>
                <g>
                    <path fill="#000" fill-rule="nonzero" d="M12.628 4.415c-1.053.764-1.58 1.683-1.58 2.759 0 1.287.65 2.275 1.952 2.964-.35 1.037-.855 1.94-1.517 2.709C10.82 13.616 10.216 14 9.669 14c-.258 0-.61-.087-1.055-.262l-.214-.085c-.437-.174-.823-.261-1.159-.261-.317 0-.664.068-1.041.205l-.269.099-.338.141c-.267.109-.536.163-.807.163-.639 0-1.345-.54-2.117-1.62C1.556 10.833 1 9.147 1 7.322c0-1.297.347-2.341 1.041-3.134C2.736 3.396 3.655 3 4.8 3c.428 0 .828.08 1.2.24l.255.107.27.113c.238.104.431.155.578.155.189 0 .398-.044.628-.134l.352-.141.262-.1c.418-.155.88-.233 1.386-.233 1.2 0 2.166.47 2.897 1.408zM9.978 0c.015.143.022.254.022.332 0 .709-.297 1.33-.892 1.866C8.514 2.733 7.823 3 7.035 3 7.012 2.84 7 2.725 7 2.656c0-.603.276-1.168.828-1.697C8.38.43 9.018.121 9.745.031c.052-.008.13-.019.234-.031z" transform="translate(-980 -40) translate(980 40) translate(195 418)"/>
                    <path d="M0 0H14V14H0z" transform="translate(-980 -40) translate(980 40) translate(195 418)"/>
                </g>
                <g fill="#34AC6A" fill-rule="nonzero">
                    <path d="M10.6 4.667v5.438c0 .502-.419.908-.934.908H9.4l-.007 2.136c0 .47-.41.851-.893.851-.482 0-.907-.381-.907-.85l.007-2.137H6.4l-.007 2.136c0 .47-.41.851-.894.851-.481 0-.906-.381-.906-.85l.007-2.137h-.265c-.517 0-.934-.405-.934-.907L3.4 4.666h7.2zm1.5 0c.483 0 .9.388.9.858v3.561c0 .47-.417.83-.9.83-.484 0-.9-.36-.9-.83v-3.56c0-.47.417-.86.9-.86zm-10.2 0c.483 0 .9.388.9.858v3.561c0 .47-.417.83-.9.83-.484 0-.9-.36-.9-.83v-3.56c0-.47.417-.86.9-.86zM4.737.023c.12-.056.263-.007.32.109l.488.975c.987-.419 2.14-.363 3.024.05l-.041-.017.501-1.005c.058-.116.202-.164.32-.108.12.056.17.196.112.312l-.51 1.023c1.004.593 1.649 1.386 1.649 2.629H3.4c0-1.316.722-2.128 1.83-2.73l-.111.061-.493-.987c-.048-.097-.022-.21.058-.277zm.758 1.982c-.276 0-.501.226-.501.5 0 .276.225.5.5.5.277 0 .5-.224.5-.5 0-.274-.223-.5-.5-.5zm3.004-.003c-.276 0-.5.226-.5.5 0 .276.224.5.5.5s.5-.224.5-.5c0-.274-.224-.5-.5-.5z" transform="translate(-980 -40) translate(980 40) translate(219 59)"/>
                </g>
                <g fill="#34AC6A" fill-rule="nonzero">
                    <path d="M10.6 4.667v5.438c0 .502-.419.908-.934.908H9.4l-.007 2.136c0 .47-.41.851-.893.851-.482 0-.907-.381-.907-.85l.007-2.137H6.4l-.007 2.136c0 .47-.41.851-.894.851-.481 0-.906-.381-.906-.85l.007-2.137h-.265c-.517 0-.934-.405-.934-.907L3.4 4.666h7.2zm1.5 0c.483 0 .9.388.9.858v3.561c0 .47-.417.83-.9.83-.484 0-.9-.36-.9-.83v-3.56c0-.47.417-.86.9-.86zm-10.2 0c.483 0 .9.388.9.858v3.561c0 .47-.417.83-.9.83-.484 0-.9-.36-.9-.83v-3.56c0-.47.417-.86.9-.86zM4.737.023c.12-.056.263-.007.32.109l.488.975c.987-.419 2.14-.363 3.024.05l-.041-.017.501-1.005c.058-.116.202-.164.32-.108.12.056.17.196.112.312l-.51 1.023c1.004.593 1.649 1.386 1.649 2.629H3.4c0-1.316.722-2.128 1.83-2.73l-.111.061-.493-.987c-.048-.097-.022-.21.058-.277zm.758 1.982c-.276 0-.501.226-.501.5 0 .276.225.5.5.5.277 0 .5-.224.5-.5 0-.274-.223-.5-.5-.5zm3.004-.003c-.276 0-.5.226-.5.5 0 .276.224.5.5.5s.5-.224.5-.5c0-.274-.224-.5-.5-.5z" transform="translate(-980 -40) translate(980 40) translate(219 418)"/>
                </g>
                <text fill="#8F92A1" font-family="Inter-Regular_Medium, Inter" font-size="12" font-weight="400" letter-spacing="-.25" transform="translate(-980 -40) translate(980 40)">
                    <tspan x="8" y="139">Приложений</tspan>
                </text>
                <text fill="#8F92A1" font-family="Inter-Regular_Medium, Inter" font-size="12" font-weight="400" letter-spacing="-.25" transform="translate(-980 -40) translate(980 40)">
                    <tspan x="8" y="318">Приложений</tspan>
                </text>
                <text fill="#8F92A1" font-family="Inter-Regular_Medium, Inter" font-size="12" font-weight="400" letter-spacing="-.25" transform="translate(-980 -40) translate(980 40)">
                    <tspan x="8" y="498">Приложений</tspan>
                </text>
                <text fill="#8F92A1" font-family="Inter-Regular_Medium, Inter" font-size="12" font-weight="400" letter-spacing="-.25" transform="translate(-980 -40) translate(980 40)">
                    <tspan x="118" y="139">Местополож.</tspan>
                </text>
                <text fill="#8F92A1" font-family="Inter-Regular_Medium, Inter" font-size="12" font-weight="400" letter-spacing="-.25" transform="translate(-980 -40) translate(980 40)">
                    <tspan x="118" y="318">Местополож.</tspan>
                </text>
                <text fill="#8F92A1" font-family="Inter-Regular_Medium, Inter" font-size="12" font-weight="400" letter-spacing="-.25" transform="translate(-980 -40) translate(980 40)">
                    <tspan x="118" y="498">Местополож.</tspan>
                </text>
                <text fill="#8F92A1" font-family="Inter-Regular_Medium, Inter" font-size="12" font-weight="400" letter-spacing="-.25" transform="translate(-980 -40) translate(980 40)">
                    <tspan x="228" y="139">Маршруты</tspan>
                </text>
                <text fill="#8F92A1" font-family="Inter-Regular_Medium, Inter" font-size="12" font-weight="400" letter-spacing="-.25" transform="translate(-980 -40) translate(980 40)">
                    <tspan x="228" y="318">Маршруты</tspan>
                </text>
                <text fill="#8F92A1" font-family="Inter-Regular_Medium, Inter" font-size="12" font-weight="400" letter-spacing="-.25" transform="translate(-980 -40) translate(980 40)">
                    <tspan x="228" y="498">Маршруты</tspan>
                </text>
                <text fill="#8F92A1" font-family="Inter-Regular_Medium, Inter" font-size="12" font-weight="400" letter-spacing="-.25" transform="translate(-980 -40) translate(980 40)">
                    <tspan x="338" y="139">Геофенс</tspan>
                </text>
                <text fill="#8F92A1" font-family="Inter-Regular_Medium, Inter" font-size="12" font-weight="400" letter-spacing="-.25" transform="translate(-980 -40) translate(980 40)">
                    <tspan x="338" y="318">Геофенс</tspan>
                </text>
                <text fill="#8F92A1" font-family="Inter-Regular_Medium, Inter" font-size="12" font-weight="400" letter-spacing="-.25" transform="translate(-980 -40) translate(980 40)">
                    <tspan x="338" y="498">Геофенс</tspan>
                </text>
                <path stroke="#F4F4F6" d="M110 115L110 211M110 294L110 390M110 474L110 570M220 115L220 211M220 294L220 390M220 474L220 570M330 115L330 211M330 294L330 390M330 474L330 570" transform="translate(-980 -40) translate(980 40)"/>
                <path fill="#F4F4F6" d="M10 187h88c1.105 0 2 .895 2 2s-.895 2-2 2H10c-1.105 0-2-.895-2-2s.895-2 2-2zM10 366h88c1.105 0 2 .895 2 2s-.895 2-2 2H10c-1.105 0-2-.895-2-2s.895-2 2-2zM10 546h88c1.105 0 2 .895 2 2s-.895 2-2 2H10c-1.105 0-2-.895-2-2s.895-2 2-2zM120 187h88c1.105 0 2 .895 2 2s-.895 2-2 2h-88c-1.105 0-2-.895-2-2s.895-2 2-2zM120 366h88c1.105 0 2 .895 2 2s-.895 2-2 2h-88c-1.105 0-2-.895-2-2s.895-2 2-2zM120 546h88c1.105 0 2 .895 2 2s-.895 2-2 2h-88c-1.105 0-2-.895-2-2s.895-2 2-2zM230 187h88c1.105 0 2 .895 2 2s-.895 2-2 2h-88c-1.105 0-2-.895-2-2s.895-2 2-2zM230 366h88c1.105 0 2 .895 2 2s-.895 2-2 2h-88c-1.105 0-2-.895-2-2s.895-2 2-2zM230 546h88c1.105 0 2 .895 2 2s-.895 2-2 2h-88c-1.105 0-2-.895-2-2s.895-2 2-2zM340 187h88c1.105 0 2 .895 2 2s-.895 2-2 2h-88c-1.105 0-2-.895-2-2s.895-2 2-2zM340 366h88c1.105 0 2 .895 2 2s-.895 2-2 2h-88c-1.105 0-2-.895-2-2s.895-2 2-2zM340 546h88c1.105 0 2 .895 2 2s-.895 2-2 2h-88c-1.105 0-2-.895-2-2s.895-2 2-2z" transform="translate(-980 -40) translate(980 40)"/>
                <path fill="#FF991F" d="M10 187h60c1.105 0 2 .895 2 2s-.895 2-2 2H10c-1.105 0-2-.895-2-2s.895-2 2-2zM10 366h16c1.105 0 2 .895 2 2s-.895 2-2 2H10c-1.105 0-2-.895-2-2s.895-2 2-2z" transform="translate(-980 -40) translate(980 40)"/>
                <path fill="#5243AA" d="M120 187h6c1.105 0 2 .895 2 2s-.895 2-2 2h-6c-1.105 0-2-.895-2-2s.895-2 2-2zM120 366h2c1.105 0 2 .895 2 2s-.895 2-2 2h-2c-1.105 0-2-.895-2-2s.895-2 2-2z" transform="translate(-980 -40) translate(980 40)"/>
                <path fill="#00875A" d="M230 187h4c1.105 0 2 .895 2 2s-.895 2-2 2h-4c-1.105 0-2-.895-2-2s.895-2 2-2zM230 366h2c1.105 0 2 .895 2 2s-.895 2-2 2h-2c-1.105 0-2-.895-2-2s.895-2 2-2z" transform="translate(-980 -40) translate(980 40)"/>
                <path fill="#0052CC" d="M340 187h2c1.105 0 2 .895 2 2s-.895 2-2 2h-2c-1.105 0-2-.895-2-2s.895-2 2-2zM340 366h2c1.105 0 2 .895 2 2s-.895 2-2 2h-2c-1.105 0-2-.895-2-2s.895-2 2-2z" transform="translate(-980 -40) translate(980 40)"/>
                <path fill="#5243AA" d="M129 154c.552 0 1 .448 1 1l.001 1.071c3.065.439 5.49 2.863 5.928 5.928L137 162c.552 0 1 .448 1 1s-.448 1-1 1h-1.07c-.44 3.065-2.864 5.49-5.929 5.929L130 171c0 .552-.448 1-1 1s-1-.448-1-1v-1.07c-3.065-.44-5.49-2.864-5.929-5.929L121 164c-.552 0-1-.448-1-1s.448-1 1-1h1.07c.44-3.066 2.864-5.49 5.93-5.93V155c0-.552.448-1 1-1zm0 4c-2.761 0-5 2.239-5 5s2.239 5 5 5c2.758 0 4.994-2.233 5-4.989v-.024l-.005-.204c-.113-2.66-2.306-4.783-4.995-4.783zm0 2c1.657 0 3 1.343 3 3s-1.343 3-3 3-3-1.343-3-3 1.343-3 3-3zM129 333c.552 0 1 .448 1 1l.001 1.071c3.065.439 5.49 2.863 5.928 5.928L137 341c.552 0 1 .448 1 1s-.448 1-1 1h-1.07c-.44 3.065-2.864 5.49-5.929 5.929L130 350c0 .552-.448 1-1 1s-1-.448-1-1v-1.07c-3.065-.44-5.49-2.864-5.929-5.929L121 343c-.552 0-1-.448-1-1s.448-1 1-1h1.07c.44-3.066 2.864-5.49 5.93-5.93V334c0-.552.448-1 1-1zm0 4c-2.761 0-5 2.239-5 5s2.239 5 5 5c2.758 0 4.994-2.233 5-4.989v-.024l-.005-.204c-.113-2.66-2.306-4.783-4.995-4.783zm0 2c1.657 0 3 1.343 3 3s-1.343 3-3 3-3-1.343-3-3 1.343-3 3-3z" transform="translate(-980 -40) translate(980 40)"/>
                <path fill="#8F92A1" d="M129 513c.552 0 1 .448 1 1l.001 1.071c3.065.439 5.49 2.863 5.928 5.928L137 521c.552 0 1 .448 1 1s-.448 1-1 1h-1.07c-.44 3.065-2.864 5.49-5.929 5.929L130 530c0 .552-.448 1-1 1s-1-.448-1-1v-1.07c-3.065-.44-5.49-2.864-5.929-5.929L121 523c-.552 0-1-.448-1-1s.448-1 1-1h1.07c.44-3.066 2.864-5.49 5.93-5.93V514c0-.552.448-1 1-1zm0 4c-2.761 0-5 2.239-5 5s2.239 5 5 5c2.758 0 4.994-2.233 5-4.989v-.024l-.005-.204c-.113-2.66-2.306-4.783-4.995-4.783zm0 2c1.657 0 3 1.343 3 3s-1.343 3-3 3-3-1.343-3-3 1.343-3 3-3z" transform="translate(-980 -40) translate(980 40)"/>
                <text fill="#8F92A1" font-family="Inter-Regular_Medium, Inter" font-size="12" font-weight="400" letter-spacing="-.25" transform="translate(-980 -40) translate(980 40)">
                    <tspan x="408" y="71">CTR</tspan>
                </text>
                <text fill="#8F92A1" font-family="Inter-Regular_Medium, Inter" font-size="12" font-weight="400" letter-spacing="-.25" transform="translate(-980 -40) translate(980 40)">
                    <tspan x="408" y="250">CTR</tspan>
                </text>
                <text fill="#8F92A1" font-family="Inter-Regular_Medium, Inter" font-size="12" font-weight="400" letter-spacing="-.25" transform="translate(-980 -40) translate(980 40)">
                    <tspan x="408" y="430">CTR</tspan>
                </text>
                <g>
                    <path fill="#E5FBEF" d="M5.128 0h54.744c1.783 0 2.43.186 3.082.534.652.349 1.163.86 1.512 1.512.348.652.534 1.299.534 3.082v9.744c0 1.783-.186 2.43-.534 3.082-.349.652-.86 1.163-1.512 1.512-.652.348-1.299.534-3.082.534H5.128c-1.783 0-2.43-.186-3.082-.534-.652-.349-1.163-.86-1.512-1.512C.186 17.302 0 16.655 0 14.872V5.128c0-1.783.186-2.43.534-3.082.349-.652.86-1.163 1.512-1.512C2.698.186 3.345 0 5.128 0z" transform="translate(-980 -40) translate(980 40) translate(0 56)"/>
                    <text fill="#297F50" font-family="Inter-Regular_Medium, Inter" font-size="12" font-weight="400" transform="translate(-980 -40) translate(980 40) translate(0 56)">
                        <tspan x="6" y="15">Включен</tspan>
                    </text>
                </g>
                <g>
                    <path fill="#E5FBEF" d="M5.128 0h54.744c1.783 0 2.43.186 3.082.534.652.349 1.163.86 1.512 1.512.348.652.534 1.299.534 3.082v9.744c0 1.783-.186 2.43-.534 3.082-.349.652-.86 1.163-1.512 1.512-.652.348-1.299.534-3.082.534H5.128c-1.783 0-2.43-.186-3.082-.534-.652-.349-1.163-.86-1.512-1.512C.186 17.302 0 16.655 0 14.872V5.128c0-1.783.186-2.43.534-3.082.349-.652.86-1.163 1.512-1.512C2.698.186 3.345 0 5.128 0z" transform="translate(-980 -40) translate(980 40) translate(0 235)"/>
                    <text fill="#297F50" font-family="Inter-Regular_Medium, Inter" font-size="12" font-weight="400" transform="translate(-980 -40) translate(980 40) translate(0 235)">
                        <tspan x="6" y="15">Включен</tspan>
                    </text>
                </g>
                <g>
                    <path fill="#FDF0BA" d="M5.128 0h54.744c1.783 0 2.43.186 3.082.534.652.349 1.163.86 1.512 1.512.348.652.534 1.299.534 3.082v9.744c0 1.783-.186 2.43-.534 3.082-.349.652-.86 1.163-1.512 1.512-.652.348-1.299.534-3.082.534H5.128c-1.783 0-2.43-.186-3.082-.534-.652-.349-1.163-.86-1.512-1.512C.186 17.302 0 16.655 0 14.872V5.128c0-1.783.186-2.43.534-3.082.349-.652.86-1.163 1.512-1.512C2.698.186 3.345 0 5.128 0z" transform="translate(-980 -40) translate(980 40) translate(0 414)"/>
                    <text fill="#3F2E00" font-family="Inter-Regular_Medium, Inter" font-size="12" font-weight="400" transform="translate(-980 -40) translate(980 40) translate(0 414)">
                        <tspan x="6" y="15">На паузе</tspan>
                    </text>
                </g>
                <g transform="translate(-980 -40) translate(980 40) translate(150 89)">
                    <use fill="#000" filter="url(#l56s27tjca)" xlink:href="#krl0miy1kb"/>
                    <path fill="#FFF" stroke="#000" d="M5.895 2.672c1.171-.208 1.477.045 1.73.363.255.32.414.815.594 1.454.073.26.153.546.255.854.215.648.279 1.384.303 2.029v.038c.135-.243.276-.396.43-.51l.078-.053c.316-.202.702-.278 1.2-.278.446 0 .733.21.922.533.03.049.055.102.079.158l.053.152.005-.02c.066-.243.173-.403.299-.52l.065-.055c.258-.201.657-.256 1.267-.25.7.002.988.21 1.18.526.088.146.15.327.196.52l.034.167.056-.021c.597-.226.83-.199 1.02-.082l.047.03c.173.122.342.311.473.64.157.396.27 1.052.27 2.153 0 .58.018 1.023.032 1.375.048 1.232.04 1.527-.628 2.424h0l-1.403 1.882c-.019.204-.07.54-.205.795-.459.466-.622.524-.817.524-.377 0-.709-.262-1.032-.637-.119-.138-.222-.363-.423-.363-.406 0-.521.664-.521.664h0L7.83 17.5c-.136-.104-2.432-1.886-3.242-3.244-.194-.325-.433-.673-.676-1.028-.83-1.21-1.583-2.483-1.368-3.349.184-.74.642-1.188 1.156-1.34.282-.083.588-.081.898.022.26.087.525.248.774.498.344.347.648.855.92 1.32.18.31.34.6.499.762-.202-.28-.21-.577-.24-.91-.078-.83-.309-1.861-.576-2.601-.316-.873-.637-2.311-.637-3.366 0-.476.07-.882.204-1.16.09-.19.211-.332.352-.432z"/>
                </g>
            </g>
        </g>
    </g>
</svg>
