<svg xmlns="http://www.w3.org/2000/svg" width="324" height="227"><g transform="translate(.487)" fill-rule="nonzero" fill="none"><circle cx="275.513" cy="33" r="33" fill="#FFD200" opacity=".15"/><circle cx="275.513" cy="33" r="21" fill="#FFD200"/><path fill="#F4F4F6" d="M311.615 112.03a6.823 6.823 0 00-2.324.417 11.764 11.764 0 10-22.98-3.563c0 .315 0 .62.051.934a8.516 8.516 0 10-3.857 16.107h29.11a6.952 6.952 0 100-13.895zM46.264 127.296a4.64 4.64 0 00-1.513.264 7.674 7.674 0 10-14.991-2.314c-.01.2-.01.4 0 .599a5.561 5.561 0 10-2.517 10.515h19.02a4.536 4.536 0 10.001-9.064zM33.434 74.75a4.427 4.427 0 00-1.512.263c.24-.744.363-1.521.365-2.304a7.633 7.633 0 00-15.225 0v.6a5.421 5.421 0 00-2.497-.6 5.52 5.52 0 00-5.521 5.522 5.521 5.521 0 005.521 5.522h18.88a4.51 4.51 0 004.08-6.817 4.51 4.51 0 00-4.08-2.187h-.01zM159.73 12.956c-.693.01-1.38.14-2.03.386a10.149 10.149 0 00-14.058-11.997 10.151 10.151 0 00-5.846 9.307v.802a7.359 7.359 0 10-3.045 13.976l25.142-.476a6.001 6.001 0 00-.233-11.998h.07z"/><path fill="#F7FAFF" d="M149.513 49v168h54V69.997L178.545 49zm62.074 38.173V220.95h54.201V108.143l-25.06-20.97zm-113.274-31.1H79.475v45.807l-12.15-10.16H38.194v125.411l51.319-.403V125l17 13.449v78.279l17.256.403V56.073h-18.828z"/><path fill="#0052CC" fill-opacity=".116" d="M115.513 145.876v70.852h-26V125z"/><path fill="#FFF" d="M60.513 125h29v92h-29zm107 18h54v74h-54z"/><path fill="#0052CC" fill-opacity=".116" d="M177.513 143h44v74h-44z"/><path fill="#FFF" d="M106.513 88h56v129h-56z"/><path fill="#0052CC" fill-opacity=".116" d="M130.513 88h32v129h-32z"/><path fill="#FFF" d="M234.435 117.349h56v99.379h-56z"/><path fill="#0052CC" fill-opacity=".116" d="M258.257 117.349h32.196v99.379h-32.196z"/><rect width="322.455" height="9.561" y="216.728" fill="#F7FAFF" rx="3.837"/></g></svg>