<svg xmlns="http://www.w3.org/2000/svg" width="299" height="149"><defs><linearGradient id="a" x1="-58.993%" x2="290.265%" y1="57.64%" y2="31.444%"><stop offset="0%"/><stop offset="8%" stop-opacity=".69"/><stop offset="21%" stop-opacity=".32"/><stop offset="100%" stop-opacity="0"/></linearGradient><linearGradient id="b" x1="-248.304%" x2="837.768%" y1="-211.429%" y2="740.536%"><stop offset="1%"/><stop offset="8%" stop-opacity=".69"/><stop offset="21%" stop-opacity=".32"/><stop offset="100%" stop-opacity="0"/></linearGradient></defs><g fill="none" fill-rule="evenodd"><path fill="#F4F4F6" fill-rule="nonzero" d="M246.188 124.2c-.456 1.38-1.956 2.088-3.312 2.628a293.528 293.528 0 01-30.192 9.504c-9.708 2.676-19.836 5.376-29.748 3.6a11.102 11.102 0 00-3.816-.312c-2.112.384-3.672 2.1-5.316 3.456-8.196 6.744-20.172 5.208-30.612 3.312.452-3.441.676-6.909.672-10.38a486.574 486.574 0 01-83.436-5.688c-6-.924-22.212-1.656-26.304-6.636a6.423 6.423 0 01-1.2-1.872l12-6.744a7.291 7.291 0 011.608.252 296.942 296.942 0 0098.184 10.2c.852-4.308-3.6-9.696-.216-12.552a6.071 6.071 0 013.828-1.116 30.837 30.837 0 0114.664 3.072c2.7 1.32 5.244 3.048 8.16 3.792 2.853.566 5.78.66 8.664.276a497.817 497.817 0 0155.332-1.056c3.036.108 6.216.288 8.796 1.884 1.512.912 2.82 2.688 2.244 4.38z"/><path stroke="#FFF" stroke-width="1.248" d="M236.948 3.828A440.333 440.333 0 01235.82.78"/><path fill="#F7FAFF" fill-rule="nonzero" d="M158.456 81.768S29.936 124.32 12.368 86.124C-5.2 47.928 91.004 37.464 91.004 37.464S-21.412 48.66 3.812 95.844c25.224 47.184 162.312.528 162.312.528l-7.668-14.604z"/><path fill="#0052CC" fill-rule="nonzero" d="M158.756 80.004a10.808 10.808 0 001.392 4.98l3.168 6.768a16.474 16.474 0 002.808 4.62 8.4 8.4 0 007.2 2.4 3.6 3.6 0 002.952-1.92c.54-1.404-.372-2.904-1.104-4.212-1.968-3.516-2.808-7.524-3.744-11.436-.72-3.048-2.184-7.344-5.904-7.776-3.288-.384-6.576 3.372-6.768 6.576zm32.28-15.768s-27.192-24.876-53.772 0c0 0 20.544-2.652 26.88 8.664l26.892-8.664zm11.112 22.74s-1.296 36.84-37.668 38.4c0 0 16.284-12.804 12.648-25.26l25.02-13.14z"/><path fill="#FFF" fill-rule="nonzero" d="M164.144 72.924s85.74-49.2 133.944-41.328c0 0-10.896 35.424-120.996 68.52l-12.948-27.192z"/><path fill="#E5E5EE" fill-rule="nonzero" d="M298.148 31.572s-10.896 35.424-120.996 68.52l-3.924-8.244-9.084-18.924s76.104-43.728 125.22-42.168c2.943.08 5.877.353 8.784.816z"/><path fill="#F7FAFF" fill-rule="nonzero" d="M298.148 31.572c-7.62 9.996-33.924 28.416-87.996 48.06a542.962 542.962 0 01-9.444 3.36c-8.52 2.944-17.68 5.896-27.48 8.856l-9.072-18.924s9.372-5.628 23.7-12.78c7.56-3.78 16.5-7.98 26.172-12 26.988-11.22 59.7-21.12 84.12-16.572z"/><path fill="url(#a)" fill-rule="nonzero" d="M232.076 49.944c-4.572 1.908-9.708 1.596-14.652 1.92a18.96 18.96 0 00-4.344.684 22.402 22.402 0 00-7.5 4.8 1.63 1.63 0 00-.624.828c-.033.35.052.7.24.996a49.907 49.907 0 003.768 6.42c1.68 2.4 3.66 4.956 3.6 7.908a10.798 10.798 0 01-2.508 6.144l-.36.504a67.432 67.432 0 01-5.628 6.636c-1.488 1.536-.528 6.228-4.128 5.1-3.132-.972-1.608-4.692-.54-6.648l1.2-2.232 2.016-3.732c1.536-2.82 3.096-6.168 1.8-9.108-.912-2.052-3.012-3.288-4.98-4.392a76.477 76.477 0 00-11.64-5.628c7.56-3.78 16.5-7.98 26.172-12 6.314.53 12.657.622 18.984.276.528.504-.216 1.248-.876 1.524z"/><circle cx="221.396" cy="61.272" r="9.864" fill="#0052CC" fill-rule="nonzero"/><circle cx="221.396" cy="60.936" r="6.72" fill="url(#b)" fill-rule="nonzero"/><path fill="#F8CAB1" fill-rule="nonzero" d="M206.648 39.792c0 .06-1.416-.18-1.38-.108.324.381.736.678 1.2.864a43.342 43.342 0 005.208 1.728c1.764.18 2.616-1.488 3.168-2.892.444-1.128.9-2.256 1.368-3.372.36-.718.587-1.494.672-2.292a1.197 1.197 0 00-.072-.54 1.012 1.012 0 00-.54-.48 1.465 1.465 0 00-1.104 0c-.648.276-.948 1.008-1.272 1.632-.756 1.428-1.944 2.592-2.592 4.068a1.875 1.875 0 01-1.332-.444l-2.1-1.368a.77.77 0 00-.348-.156.64.64 0 00-.54.252 2.858 2.858 0 00-.648 1.608c-.06.301-.06.611 0 .912.075.21.18.408.312.588z"/><path fill="#0052CC" fill-rule="nonzero" d="M208.268 36.528l.744.456c.108 0 .216.12.252.24a.493.493 0 010 .264l-.492 2.184a7.128 7.128 0 01-1.032 2.748c-.288.396-2.4-1.068-2.76-1.26a9.054 9.054 0 01-2.316-2.22 3.68 3.68 0 01-.66-1.2 4.93 4.93 0 01.48-3.252c.84-1.644 2.256-.828 3.324.18a16.48 16.48 0 002.46 1.86z"/><path fill="#FCAB9A" fill-rule="nonzero" d="M194.72 91.032c.037.157.12.3.24.408a17.261 17.261 0 005.988 3.804.946.946 0 00.444.12.636.636 0 00.504-.66 1.691 1.691 0 00-.324-.84 16.006 16.006 0 00-1.476-1.98 2.521 2.521 0 01-.9-1.668c.047-.325.132-.643.252-.948.36-1.356-1.896-1.632-2.844-1.308a3.936 3.936 0 00-1.884 3.072z"/><path fill="#181818" fill-rule="nonzero" d="M189.2 52.92s-4.092 5.712.12 10.8c2.916 3.528 7.296 5.928 11.328 7.944.708.36 1.548.648 2.232 1.08 1.332.84.516 1.548-.192 2.664a697.307 697.307 0 01-5.376 8.508 12.004 12.004 0 00-2.1 4.8l4.572 1.392a87.368 87.368 0 018.4-11.916c1.356-1.608 3.108-3.6 2.856-5.832a10.803 10.803 0 00-2.616-5.556l-8.556-9.936L189.2 52.92z"/><path fill="#F8CAB1" fill-rule="nonzero" d="M209.072 25.62c.144.42.552.756.612 1.2.06.444-.396.972-.696 1.464-.3.492-.504 1.44-.912 2.1a.753.753 0 01-.336.336c-.13.047-.269.072-.408.072a6.097 6.097 0 01-1.608-.264.483.483 0 00-.312-.072.435.435 0 00-.192.24 8.603 8.603 0 00-.852 4.056c0 .456 0 1.032-.372 1.26a.75.75 0 01-.456.12c-1.056 0-1.86-.948-2.4-1.884a12.22 12.22 0 01-1.02-2.652 2.15 2.15 0 01-.096-.828c.056-.326.17-.639.336-.924a17.94 17.94 0 001.284-3.252c.28-1.471.782-2.891 1.488-4.212.274-.42.673-.743 1.14-.924a3.04 3.04 0 011.608.084 4.27 4.27 0 012.724 1.632c.204.312.3 1.908.468 2.448z"/><path fill="#0052CC" fill-rule="nonzero" d="M198.548 57.612a6.456 6.456 0 01-2.748-.156 14.238 14.238 0 00-3.984-.228c-.791.199-1.566.46-2.316.78a4.369 4.369 0 01-3.6-.612v-.552c.18-1.608-.492-3.888 0-5.436 1.764-6.18 3.264-10.8 6.78-16.104 1.008-1.524 4.98-3.48 6.612-4.296.371-.2.78-.318 1.2-.348.483.02.956.151 1.38.384 1.452.708 2.016 2.028 2.724 3.396a13.202 13.202 0 011.656 4.524c.18 2.064.912 3.996-.264 5.916-1.62 2.7-4.308 4.524-5.808 7.44a2.809 2.809 0 00-.432 1.404c0 .696.492 1.332.492 2.028a2.135 2.135 0 01-1.692 1.86z"/><path fill="#F8CAB1" fill-rule="nonzero" d="M207.8 47.88c.576.264 1.2.492 1.692.684a34.517 34.517 0 008.7 1.584 52.24 52.24 0 0011.208.204 10.023 10.023 0 004.32-1.356c.384-.252.78-.708.588-1.128a1.037 1.037 0 00-.48-.42 8.717 8.717 0 00-4.692-.984c0-.564-.144-1.284-.696-1.332-.552-.048-.876.708-1.2 1.2-.72 1.2-2.4 1.332-3.744 1.32a39.815 39.815 0 01-9.24-.948 20.483 20.483 0 01-4.392-1.596c-.9-.456-2.712-2.34-3.6-1.332-.888 1.008-1.716 1.68-.516 2.748a8.152 8.152 0 002.052 1.356z"/><path fill="#0052CC" fill-rule="nonzero" d="M203.12 36.3s4.704 6.636 5.388 7.032c.684.396-4.224 5.22-4.224 5.22s-5.688-6.156-6.348-9.3c-.66-3.144 2.28-5.304 5.184-2.952z"/><path fill="#E35F5F" fill-rule="nonzero" d="M208.568 22.524a2.511 2.511 0 01-1.716 1.008c-.592.094-1.19.146-1.788.156h-.144a.238.238 0 00-.06.18c-.05.932-.485 1.8-1.2 2.4a.582.582 0 00-.216.24.666.666 0 000 .432c.084.48.084.972 0 1.452-.068.488-.296.94-.648 1.284a.455.455 0 00-.18.252c0 .09.024.177.072.252.165.501.13 1.047-.096 1.524a3.851 3.851 0 00-3.216-.696 1.605 1.605 0 00-.912.384c-1.608 1.692-2.928 3.696-4.62 5.328-.72.696-1.524 1.308-2.196 2.064a15.076 15.076 0 00-2.4 4.116 14.98 14.98 0 01-1.74 3.3 4.729 4.729 0 01-3.072 1.932 4.213 4.213 0 01-3.204-1.104 5.27 5.27 0 01-1.44-5.544c.156-.299.2-.644.12-.972a1.436 1.436 0 00-.384-.468 4.117 4.117 0 010-5.7c.804-.756 2.736-1.488 2.844-2.736.108-1.248-1.008-2.484-.552-3.924.165-.438.405-.844.708-1.2a6.075 6.075 0 012.28-2.004c.928-.313 1.9-.47 2.88-.468 3.144-.216 6.432-1.2 8.508-3.6.467-.622.98-1.208 1.536-1.752a6.462 6.462 0 012.184-1.104 8.619 8.619 0 015.928-.084 4.802 4.802 0 012.772 3.132 2.315 2.315 0 01-.048 1.92z"/><path fill="#FFF" fill-rule="nonzero" d="M208.22 27.72a13.288 13.288 0 01-1.38-.12c-.132.252.468 1.2.6 1.272a.35.35 0 00.456 0 .665.665 0 00.108-.252l.216-.912"/><circle cx="207.14" cy="25.32" r="1" fill="#181818" fill-rule="nonzero"/><rect width="1.728" height="4.728" x="214.147" y="29.767" fill="#0052CC" fill-rule="nonzero" rx=".6" transform="rotate(10.78 215.01 32.13)"/><path fill="#F8CAB1" fill-rule="nonzero" d="M214.664 30.144a1.728 1.728 0 00-1.428 1.092c-.203.788.103 1.62.768 2.088.66.443 1.418.719 2.208.804a.78.78 0 00.696-.096.774.774 0 00.192-.408 4.167 4.167 0 00.228-1.668 2.532 2.532 0 00-2.664-1.812z"/><path fill="#0052CC" fill-rule="nonzero" d="M212.48 27.564l-.12 1.368a.708.708 0 00.528.84c2.3.161 4.55.747 6.636 1.728a23.207 23.207 0 013.216 2.184c.408.324.996 0 1.092-.696l1.068-7.2c.096-.636-.36-1.08-.84-.84-2.004 1.02-6.504 2.892-10.668 1.74-.444-.108-.864.312-.912.876z"/><path fill="#181818" fill-rule="nonzero" d="M195.008 89.556c-.575.37-1 .93-1.2 1.584a1.008 1.008 0 000 .624c.084.18.212.337.372.456a26.315 26.315 0 006.408 4.212c.296.151.617.245.948.276a.948.948 0 00.864-.372c.114-.192.172-.412.168-.636a3.06 3.06 0 00-3.084-3.156 5.485 5.485 0 01-.888 0 2.263 2.263 0 01-.768-.36 11.701 11.701 0 01-1.776-1.272 16.12 16.12 0 01-1.044-1.356z"/></g></svg>